<?xml version="1.0" encoding="UTF-8"?>
<svg id="_0cdb4e4d-471b-45ef-b32c-d90d48ef90fc" data-name="0cdb4e4d-471b-45ef-b32c-d90d48ef90fc" xmlns="http://www.w3.org/2000/svg" viewBox="0 0 1016.06 828.25">
  <defs>
    <style>
      .cls-1 {
        fill: #ffcfb9;
      }

      .cls-2 {
        fill: #d2d4de;
      }

      .cls-3 {
        stroke-width: .75px;
      }

      .cls-3, .cls-4 {
        stroke: #444053;
      }

      .cls-3, .cls-4, .cls-5, .cls-6, .cls-7, .cls-8 {
        stroke-miterlimit: 10;
      }

      .cls-3, .cls-4, .cls-6, .cls-7 {
        fill: none;
      }

      .cls-9, .cls-10, .cls-11, .cls-12 {
        isolation: isolate;
      }

      .cls-9, .cls-11, .cls-13, .cls-12 {
        opacity: .1;
      }

      .cls-10 {
        opacity: .15;
      }

      .cls-14 {
        fill: #2f2e41;
      }

      .cls-15 {
        font-family: AcuminConcept-Regular, 'Acumin Variable Concept';
        font-size: 6.02px;
        font-variation-settings: 'wght' 400, 'wdth' 100, 'slnt' 0;
      }

      .cls-15, .cls-16 {
        fill: #231f20;
      }

      .cls-17 {
        fill: #444053;
      }

      .cls-16 {
        font-family: AcuminVariableConcept, 'Acumin Variable Concept';
        font-size: 7.22px;
        font-variation-settings: 'wght' 194, 'wdth' 100, 'slnt' 0;
        opacity: .7;
      }

      .cls-5 {
        fill: #f6f7f8;
      }

      .cls-5, .cls-6, .cls-7, .cls-8 {
        stroke: #454053;
      }

      .cls-5, .cls-8 {
        stroke-width: .1px;
      }

      .cls-18 {
        fill: #edecec;
      }

      .cls-6 {
        opacity: .3;
        stroke-width: .25px;
      }

      .cls-11, .cls-19 {
        fill: #bf43ff;
      }

      .cls-7 {
        stroke-width: .5px;
      }

      .cls-20 {
        fill: #a342ff;
      }

      .cls-21, .cls-12 {
        fill: #fff;
      }

      .cls-22 {
        fill: #30374e;
      }

      .cls-8 {
        fill: #fafbfb;
      }

      .cls-23 {
        fill: #090814;
      }

      .cls-24 {
        font-family: ArialRoundedMTBold, 'Arial Rounded MT Bold';
      }

      .cls-24, .cls-25 {
        font-size: 7.04px;
      }

      .cls-26 {
        fill: #dcd6e3;
      }

      .cls-27 {
        fill: #f7b3b5;
      }

      .cls-28 {
        font-size: 6.07px;
        opacity: .5;
      }

      .cls-28, .cls-25, .cls-29 {
        font-family: BalooBhaijaan-Regular, 'Baloo Bhaijaan';
      }

      .cls-29 {
        font-size: 9.11px;
      }
    </style>
  </defs>
  <path class="cls-11" d="M522.98,216.28c-63.88,10.66-127.86,4.92-189.45-3.02-61.59-7.94-123.04-18.09-187.05-16.12-41.16,1.28-86.94,9.37-115.41,34.19C3.67,255.2-.25,287.85.01,317.37c.2,22.21,2.28,45.22,17.32,63.07,10.44,12.4,26.4,21.39,38.47,32.85,42.05,39.88,30.12,101.67,3.5,154-12.53,24.54-27.83,48.64-36.23,73.8-8.4,25.16-9.23,52.29,6.6,73.17,15.69,20.65,45.71,32.56,76.94,38.93,63.42,12.95,133.82,6.26,201.9-3.02,150.69-20.69,299.74-54.16,448.26-87.54,55-12.36,110.23-24.77,163.14-42.94,29.38-10.07,59.27-22.75,78.09-42.79,23.88-25.45,24.09-60.59.5-81.91-39.54-35.71-128.11-29.03-158.86-69.7-16.95-22.37-10.05-52.44,2.9-78.88,27.74-56.72,82.09-112.42,74.26-169.42-5.37-39.15-43.28-71.92-93.66-80.99-52.79-9.5-120.25,6.36-150.11,45.28-30.79,40.06-93.66,65.6-150.06,75.01Z"/>
  <path class="cls-19" d="M934.66,261.12s-12.59-5.12-52.62,13.25c-40.03,18.37-45.03,16.03-55.4,13.22s-16.1-3.47-27.25-18.79c0,0-7.83-42.48-15.42-49.06s-39.81,3.75-39.81,3.75c0,0-38.64,8.86-46-42.78,0,0,5.22-38.92-1.89-50.86,0,0,14.31,6.19,38.06-3.81,23.74-10,42.67,10.74,42.67,10.74,0,0,5.98,15.47,5.37,24.69-.61,9.22,3.16,12.7,14.47,8.24,0,0,5.55-7.9-2.31-20.96s-13.47-22.78-11.28-32.92c2.19-10.14,8.5-24.16,28.78-31.23,20.28-7.08,47.81-8.38,61.04-13.89s16.42-9.09,16.42-9.09c0,0-8.13,8.15,11.02,42.7,19.16,34.55,6.95,49.55,6.95,49.55,0,0-10.2,24.29-55.2,22.32,0,0-43.37,1.58-19.73,19.97,0,0,15.15-3.08,37.78-10.28,22.64-7.2,38.98,22.51,43.03,43.18s21.32,32.06,21.32,32.06Z"/>
  <path class="cls-17" d="M876.36,87.85l.24-.06c1.74,6.59-17.64,33.1-34.21,54.15l-.2-.15c23.38-29.71,35.51-48.87,34.17-53.93Z"/>
  <path class="cls-17" d="M842.54,141.35l.1.27c-13.23,16.82-29.88,36.91-43.2,51.78-1.27,1.41-2.53,2.91-3.74,4.42l-.38-.3c1.22-1.52,2.49-3.02,3.76-4.47,13.32-14.83,30.24-34.87,43.47-51.69Z"/>
  <path class="cls-17" d="M795.63,197.13l.27.46c-24.25,30.27-25.85,77.26-25.95,77.67l-5.11-5.9c.09-.43,6.38-41.75,30.79-72.22Z"/>
  <path class="cls-4" d="M906.55,244.7s-28.63-14.86-50.87-9.53-72.47-18.85-72.47-18.85c0,0-21.29-8.65-25.58-18.51,0,0-14.61-15.45-15.44-23.45-.83-8-15.06-28.08-24.34-28.86"/>
  <path class="cls-4" d="M902.4,259.01s-14.4-9.7-12.72-21.01"/>
  <path class="cls-4" d="M880.31,271.53s-20.58-7.47-22.65-36.78"/>
  <path class="cls-4" d="M847.14,279.12s-19.68-16.32-13.14-44.84"/>
  <path class="cls-4" d="M807.17,271.15s-13.11-27.49-1.44-45.39"/>
  <path class="cls-4" d="M906.88,226.58s-14.89,4.72-11.69,12.53"/>
  <path class="cls-4" d="M888.91,199.55s-19.92,6.33-20.39,34.51"/>
  <path class="cls-4" d="M861.12,193.05s-18.14,22.37-16.8,42.73"/>
  <path class="cls-4" d="M829.37,201.84s-18.02,17.21-15.72,26.79"/>
  <path class="cls-4" d="M818.51,195.75s-16.89,3.02-19.25-2.51"/>
  <path class="cls-4" d="M796.55,175.36s8.54,11.3,10.74,8.77"/>
  <path class="cls-4" d="M881.14,168.21s-42.57,3.09-52.2-9.74"/>
  <path class="cls-4" d="M787.6,118.4s19.98,42.88,34.49,48.31"/>
  <path class="cls-4" d="M808.56,97.99s12.27,39.44,27.47,51.75"/>
  <path class="cls-3" d="M899.03,135.66s-32.38,13.9-51.82-.16"/>
  <path class="cls-3" d="M837.4,89.58s7.4,29,17.37,35.98"/>
  <path class="cls-3" d="M894.18,103.19s-18.2,6.89-24.99,1.61"/>
  <path class="cls-4" d="M780.98,184.84s-.05,25.27-6.89,27.06"/>
  <path class="cls-4" d="M724.72,217.58s27.32,2.34,39.93-11.77"/>
  <path class="cls-4" d="M773.92,154.97s-6.61,25.64-24.85,32.54"/>
  <path class="cls-4" d="M708.33,190.58s19.34,6.72,35.98-10.41"/>
  <path class="cls-4" d="M752.41,132.94s-1.79,21.78-13.66,31.96"/>
  <path class="cls-4" d="M709.06,157.41s16.05.11,19.82-5.13"/>
  <ellipse class="cls-11" cx="604.67" cy="785.1" rx="316.28" ry="15.06"/>
  <path class="cls-19" d="M165.18,795.92s-32.31-1.95-28.5,20.69c0,0-.75,4,2.87,5.82,0,0,.05-1.67,3.31-1.11,1.16.2,2.34.26,3.51.17,1.59-.11,3.1-.74,4.29-1.79h0s9.08-3.75,12.61-18.59c0,0,2.61-3.23,2.51-4.06l-5.46,2.33s1.87,3.93.4,7.2c0,0-.18-7.06-1.23-6.9-.21,0-2.84,1.37-2.84,1.37,0,0,3.21,6.84.79,11.83,0,0,.89-8.45-1.79-11.34l-3.84,2.24s3.72,7.11,1.22,12.87c0,0,.64-8.85-2.01-12.3l-3.48,2.68s3.52,6.97,1.38,11.76c0,0-.29-10.31-2.13-11.09,0,0-3.04,2.68-3.51,3.78,0,0,2.41,5.06.89,7.73,0,0-.89-6.86-1.66-6.9,0,0-3.03,4.55-3.35,7.67.15-2.88,1.05-5.68,2.61-8.11-1.75.33-3.36,1.17-4.64,2.41,0,0,.47-3.22,5.37-3.5,0,0,2.51-3.45,3.18-3.66,0,0-4.89-.41-7.86.89,0,0,2.61-3.03,8.75-1.66l3.44-2.8s-6.44-.89-9.17.09c0,0,3.14-2.68,10.09-.72l3.74-2.24s-5.48-1.18-8.76-.76c0,0,3.45-1.86,9.84.16l2.68-1.2s-4.02-.8-5.2-.89-1.24-.46-1.24-.46c2.55-.43,5.17-.13,7.56.84,0,0,5.7-2.09,5.61-2.45Z"/>
  <ellipse class="cls-11" cx="142.93" cy="824.39" rx="22.86" ry="3.87"/>
  <path class="cls-19" d="M108.58,797.13s-18.21-1.1-16.06,11.63c-.23,1.33.43,2.66,1.62,3.28,0,0,0-.95,1.87-.63.65.11,1.32.14,1.98.1.89-.06,1.74-.41,2.42-1h0s5.12-2.11,7.11-10.48c0,0,1.47-1.79,1.41-2.3l-3.08,1.32c.59,1.28.67,2.73.22,4.06,0,0-.1-3.98-.69-3.88-.12,0-1.59.76-1.59.76,0,0,1.79,3.87.44,6.67,0,0,.52-4.76-1-6.39l-2.17,1.26s2.11,3.99.68,7.24c0,0,.37-4.99-1.14-6.93l-1.96,1.53s1.99,3.93.78,6.63c0,0-.16-5.81-1.2-6.26-.75.63-1.41,1.35-1.98,2.14,0,0,1.35,2.85.51,4.36,0,0-.51-3.87-.89-3.88,0,0-1.71,2.56-1.89,4.32.09-1.63.6-3.2,1.48-4.57-.99.19-1.9.66-2.62,1.35,0,0,.27-1.79,3.04-1.97.52-.75,1.12-1.45,1.79-2.07-1.5-.12-3,.05-4.43.51,0,0,1.47-1.71,4.94-.89l1.93-1.57s-3.63-.5-5.17,0c0,0,1.79-1.51,5.69-.41l2.11-1.25c-1.62-.36-3.28-.5-4.94-.43,0,0,1.94-1.05,5.56.09l1.5-.68s-2.26-.45-2.93-.51-.7-.26-.7-.26c1.44-.24,2.91-.07,4.26.47,0,0,3.16-1.15,3.1-1.35Z"/>
  <ellipse class="cls-11" cx="96.05" cy="813.18" rx="12.89" ry="2.18"/>
  <path class="cls-19" d="M143.25,770.07s-21.98-1.32-19.4,14.08c-.27,1.6.52,3.2,1.96,3.95,0,0,0-1.14,2.25-.75.79.13,1.59.17,2.39.12,1.08-.08,2.1-.5,2.92-1.21h0s6.18-2.55,8.59-12.65c0,0,1.79-2.2,1.7-2.77l-3.7,1.57s1.26,2.68.27,4.9c0,0-.12-4.8-.83-4.69-.14,0-1.93.89-1.93.89,0,0,2.18,4.66.54,8.05,0,0,.63-5.74-1.22-7.71l-2.61,1.53s2.55,4.81.82,8.74c0,0,.45-6.02-1.37-8.37l-2.36,1.85s2.39,4.74.89,8c0,0-.19-7.01-1.45-7.54-.9.76-1.7,1.62-2.39,2.58,0,0,1.65,3.44.63,5.26,0,0-.63-4.67-1.14-4.7,0,0-2.06,3.1-2.27,5.22.11-1.96.72-3.87,1.79-5.52-1.19.22-2.29.79-3.16,1.64,0,0,.32-2.19,3.67-2.38,0,0,1.71-2.35,2.17-2.5,0,0-3.33-.28-5.37.62,0,0,1.79-2.07,5.96-1.13l2.34-1.91s-4.38-.6-6.26.06c0,0,2.14-1.79,6.86-.49l2.61-1.52c-1.96-.43-3.96-.6-5.97-.51,0,0,2.35-1.27,6.71.11l1.79-.81s-2.74-.55-3.53-.63-.89-.3-.89-.3c1.73-.29,3.52-.09,5.14.57,0,0,3.94-1.41,3.87-1.66Z"/>
  <ellipse class="cls-11" cx="128.11" cy="789.45" rx="15.56" ry="2.63"/>
  <path class="cls-2" d="M598.19,763.13v7h-206.9v-5.69c35.21-13.05,53.18-52.17,40.14-87.38-6.28-16.94-19.03-30.68-35.46-38.2h200.82c-18.69,8.59-32.5,25.16-37.58,45.09-6.88,27.13,3.56,55.7,26.31,71.99,3.95,2.84,8.2,5.26,12.67,7.19Z"/>
  <path class="cls-9" d="M596.78,638.85c-18.69,8.59-32.5,25.16-37.58,45.09h-125.65c-5.07-19.93-18.88-36.51-37.58-45.09h200.8Z"/>
  <path class="cls-2" d="M154.37,603.22v39.27c0,21.7,15.87,39.28,35.46,39.28h608.72c19.58,0,35.46-17.58,35.46-39.28v-39.27H154.37Z"/>
  <path class="cls-9" d="M598.19,763.13v7h-206.9v-5.69c5.68-2.11,11.04-4.97,15.96-8.5h178.26c3.96,2.84,8.21,5.26,12.69,7.19Z"/>
  <rect class="cls-2" x="322.91" y="758.12" width="343.64" height="20.73" rx="9.5" ry="9.5"/>
  <path class="cls-22" d="M834.01,172.85c0-19.58-15.87-35.46-35.46-35.46H189.83c-19.58,0-35.46,15.87-35.46,35.46h0v438h679.64V172.85Z"/>
  <path class="cls-21" d="M815.47,188.67v376.37c0,9.64-7.81,17.46-17.46,17.46H190.37c-9.64,0-17.45-7.8-17.46-17.44V188.67c-.01-9.64,7.79-17.47,17.43-17.48,0,0,.02,0,.03,0h607.64c9.65,0,17.46,7.83,17.46,17.47h0Z"/>
  <path class="cls-19" d="M191.29,154.05c-5.77,11.92-15.21,25.49-25.88,20.3-10.67-5.19-18.65-27.16-12.87-39.08,5.77-11.92,19.13-17.38,29.86-12.19,10.74,5.19,14.67,19.05,8.89,30.97Z"/>
  <path class="cls-19" d="M168.44,181.92s-2.08-.34-1.29-2.07c.07-.15.15-.3.25-.44.32-.49.55-1.03.68-1.6.05-.2.09-.4.12-.61.13-.92.09-1.86-.1-2.77l5.68-.38s-2.21,1.89-1.95,2.86c.04.14.13.27.26.35.12.07.24.13.38.16.15.03.29.07.43.13,1.49.52.89,1.28.89,1.28-.22,2.42-5.35,3.09-5.35,3.09Z"/>
  <path class="cls-17" d="M172.09,177.24l-4.01.55c.05-.2.09-.4.12-.61,1.01,0,2.61-.19,3.63-.29.04.14.13.27.26.35Z"/>
  <path class="cls-19" d="M168.44,181.92s-2.08-.34-1.29-2.07c.81.2,1.64.23,2.46.1,1.36-.35,2.54-1.21,3.28-2.4,1.49.52.89,1.28.89,1.28-.22,2.42-5.35,3.09-5.35,3.09Z"/>
  <path class="cls-9" d="M168.44,181.92s-2.08-.34-1.29-2.07c.81.2,1.64.23,2.46.1,1.36-.35,2.54-1.21,3.28-2.4,1.49.52.89,1.28.89,1.28-.22,2.42-5.35,3.09-5.35,3.09Z"/>
  <path class="cls-12" d="M171.48,124.3s-6.35-.76-8.15,3.46c.76-.12,1.54-.08,2.28.13.47.21.97.31,1.49.29.96-1.77,2.51-3.15,4.38-3.88Z"/>
  <path class="cls-19" d="M158.86,210.76c-1.05,1.16-2.25,2.16-3.58,2.97-.37.23-.75.47-1.15.68-10.12,5.56-28,5.66-36.39-1.73-7.83-6.9-10.53-17.24-7.49-25.7.15-.41.31-.81.49-1.23.81-1.86,1.91-3.57,3.25-5.09,6.36-7.21,17-8.68,26.12-4.33.81.38,1.59.81,2.35,1.28.37.21.73.46,1.09.7.94.63,1.83,1.32,2.68,2.07.47.41.89.83,1.4,1.26l.12.11c2.87,2.59,5.53,5.42,7.94,8.45.73.94,1.43,1.89,2.05,2.85.44.66.89,1.33,1.23,2,1.66,2.69,2.57,5.78,2.63,8.95,0,.29,0,.57-.06.89v.13c-.14,1.14-.47,2.25-.98,3.28-.46.88-1.04,1.71-1.71,2.44Z"/>
  <path class="cls-9" d="M158.86,210.76c-1.05,1.16-2.25,2.16-3.58,2.97-.37.23-.75.47-1.15.68-10.12,5.56-28,5.66-36.39-1.73-7.83-6.9-10.53-17.24-7.49-25.7.15-.41.31-.81.49-1.23.81-1.86,1.91-3.57,3.25-5.09,6.36-7.21,17-8.68,26.12-4.33.81.38,1.59.81,2.35,1.28.37.21.73.46,1.09.7.94.63,1.83,1.32,2.68,2.07.47.41.89.83,1.4,1.26l.12.11c2.87,2.59,5.53,5.42,7.94,8.45.73.94,1.43,1.89,2.05,2.85.44.66.89,1.33,1.23,2,1.66,2.69,2.57,5.78,2.63,8.95,0,.29,0,.57-.06.89v.13c-.14,1.14-.47,2.25-.98,3.28-.46.88-1.04,1.71-1.71,2.44Z"/>
  <path class="cls-19" d="M164.61,210.55c-.13-.11-.25-.23-.36-.36-.38-.44-.85-.81-1.36-1.08-.18-.1-.37-.2-.56-.28-.57-.25-1.17-.43-1.79-.54-.3-.06-.59-.09-.89-.11l.81-3.85v-.05l.35-1.67c.23.49.5.96.81,1.4.41.63.89,1.23,1.43,1.24.15,0,.28-.06.39-.16.11-.09.19-.2.26-.32.09-.14.16-.27.24-.38.89-1.29,1.46-.47,1.46-.47,1.02.37,1.44,1.57,1.59,2.8,0,.18.02.36.05.54.05.87.02,1.74-.09,2.6,0,0-.89,1.91-2.34.69Z"/>
  <path class="cls-17" d="M162.9,209.1c-.18-.1-.37-.2-.56-.28.2-.83.44-2.09.61-3.07,0-.07,0-.13.04-.21s0-.21.05-.3c.15,0,.28-.06.39-.16l-.08.61v.24l-.46,3.16Z"/>
  <path class="cls-19" d="M164.61,210.55c.4-.73.65-1.53.75-2.35.02-.5-.04-1-.17-1.48-.04-.15-.08-.29-.13-.43-.21-.72-.6-1.37-1.13-1.9.89-1.29,1.46-.47,1.46-.47,1.02.37,1.44,1.57,1.59,2.8,0,.18.02.36.05.54.05.87.02,1.74-.09,2.6,0,0-.89,1.91-2.34.69Z"/>
  <path class="cls-9" d="M164.61,210.55c.4-.73.65-1.53.75-2.35.02-.5-.04-1-.17-1.48-.04-.15-.08-.29-.13-.43-.21-.72-.6-1.37-1.13-1.9.89-1.29,1.46-.47,1.46-.47,1.02.37,1.44,1.57,1.59,2.8,0,.18.02.36.05.54.05.87.02,1.74-.09,2.6,0,0-.89,1.91-2.34.69Z"/>
  <path class="cls-12" d="M112.28,191.5s-2.43,5.91,1.15,8.79c.08-.77.33-1.51.74-2.17.33-.39.56-.86.67-1.36-1.45-1.39-2.36-3.26-2.57-5.26Z"/>
  <path class="cls-19" d="M203.35,173.75c-4.83,3.1-10.41,6.11-15.7,7.7-4.07,1.24-7.97,1.63-11.24.59-1.42-.44-2.72-1.19-3.81-2.19-.74-.68-1.39-1.45-1.92-2.29-3.78-5.91-3.71-16.31-.72-25.32,2.08-6.26,5.56-11.81,10.14-14.74,11.15-7.16,25.39-4.84,31.81,5.17s2.59,23.92-8.56,31.07Z"/>
  <path class="cls-9" d="M203.35,173.75c-4.83,3.1-10.41,6.11-15.7,7.7-4.07,1.24-7.97,1.63-11.24.59-1.42-.44-2.72-1.19-3.81-2.19-.74-.68-1.39-1.45-1.92-2.29-3.78-5.91-3.71-16.31-.72-25.32,2.08-6.26,5.56-11.81,10.14-14.74,11.15-7.16,25.39-4.84,31.81,5.17s2.59,23.92-8.56,31.07Z"/>
  <path class="cls-19" d="M175.47,185.71c-1.43,2-6.14-.13-6.14-.13,0,0-1.6-1.39,0-2.43.14-.09.29-.17.45-.24.53-.26,1.01-.6,1.42-1.01.14-.15.29-.3.41-.47.4-.48.74-1.01,1.01-1.57.14-.27.25-.55.35-.84l5.05,2.68c-.54.09-1.07.22-1.58.38-.72.23-1.44.58-1.57,1.04-.06.14-.06.29,0,.43.06.12.14.24.24.33.1.11.2.22.3.33,1.01,1.19.07,1.5.07,1.5Z"/>
  <path class="cls-17" d="M174.87,183.51l-3.7-1.59c.14-.15.29-.3.41-.47.89.49,2.33,1.21,3.25,1.66-.04.13-.03.28.04.4Z"/>
  <path class="cls-19" d="M175.47,185.71c-1.43,2-6.14-.13-6.14-.13,0,0-1.6-1.39,0-2.43.59.58,1.29,1.05,2.06,1.37,1.34.42,2.79.29,4.04-.34.98,1.23.04,1.54.04,1.54Z"/>
  <path class="cls-9" d="M175.47,185.71c-1.43,2-6.14-.13-6.14-.13,0,0-1.6-1.39,0-2.43.59.58,1.29,1.05,2.06,1.37,1.34.42,2.79.29,4.04-.34.98,1.23.04,1.54.04,1.54Z"/>
  <path class="cls-12" d="M201.98,138.08s-5.02-3.97-8.76-1.31c.71.29,1.35.74,1.87,1.31.29.42.68.77,1.13,1.02,1.74-1.01,3.78-1.37,5.76-1.02Z"/>
  <g class="cls-13">
    <path d="M102.57,169.72c-.41.65-.66,1.39-.73,2.16-3.58-2.85-1.15-8.78-1.15-8.78.21,2,1.11,3.87,2.56,5.27-.11.5-.34.96-.67,1.35Z"/>
    <path d="M148.05,179.77l1.16-5.56c.24.48.5.95.81,1.4-.04,1.49-.4,2.95-1.07,4.28-.3-.05-.59-.09-.89-.11Z"/>
    <path d="M147.76,181.76c-.15.2-.32.4-.49.6-1.05,1.15-2.25,2.15-3.58,2.97-.36.24-.74.47-1.14.68-8.68,4.78-23.06,5.53-32.28.98.84-2.32,2.11-4.46,3.74-6.32,6.36-7.21,17-8.68,26.12-4.33,2.22,1.06,4.27,2.42,6.11,4.04.5.45,1.02.89,1.52,1.37Z"/>
    <path d="M153.02,182.13c-.13-.11-.25-.23-.36-.36-.39-.43-.85-.8-1.36-1.08-.18-.1-.38-.2-.56-.28-.57-.25-1.17-.43-1.79-.54-.3-.05-.59-.09-.89-.11l1.16-5.56c.24.48.5.95.81,1.4.41.63.94,1.23,1.43,1.24.15,0,.29-.06.39-.16.11-.09.2-.2.26-.32l.23-.38c.89-1.29,1.47-.48,1.47-.48,2.3.83,1.56,5.94,1.56,5.94,0,0-.9,1.92-2.34.69Z"/>
    <path d="M151.3,180.69c-.18-.1-.38-.2-.56-.28.23-.98.52-2.57.71-3.58.15,0,.29-.06.39-.16l-.54,4.02Z"/>
    <path d="M153.02,182.13c.4-.73.65-1.52.75-2.34.03-1.41-.49-2.77-1.44-3.8.89-1.29,1.47-.48,1.47-.48,2.3.83,1.56,5.94,1.56,5.94,0,0-.89,1.92-2.34.69Z"/>
    <path class="cls-9" d="M153.02,182.13c.4-.73.65-1.52.75-2.34.03-1.41-.49-2.77-1.44-3.8.89-1.29,1.47-.48,1.47-.48,2.3.83,1.56,5.94,1.56,5.94,0,0-.89,1.92-2.34.69Z"/>
    <path class="cls-9" d="M101.87,171.87c-3.58-2.85-1.15-8.78-1.15-8.78.21,2,1.11,3.87,2.56,5.27-.11.5-.34.96-.67,1.35-.41.65-.66,1.39-.73,2.16Z"/>
  </g>
  <path class="cls-19" d="M148,181.26l-.36.39c-.96.99-2.04,1.86-3.22,2.58l-.34.21c-.26.16-.53.31-.8.47-8.76,4.81-23.32,5.54-32.52.89-1.39-.69-2.69-1.56-3.87-2.58-9.94-8.76-11.63-23.09-3.76-32.02,6.37-7.21,17-8.68,26.12-4.32.29.13.56.27.85.42,1.89.98,3.66,2.18,5.26,3.58,3.45,2.98,6.62,6.28,9.46,9.84.58.74,1.14,1.49,1.65,2.25.14.2.27.41.4.61.25.37.48.74.71,1.12s.35.6.52.89c1.67,2.69,2.58,5.78,2.64,8.95-.04,1.49-.4,2.95-1.07,4.28-.45.88-1.01,1.71-1.67,2.44Z"/>
  <path class="cls-19" d="M153.76,181.02c-.13-.11-.25-.23-.36-.36-.39-.44-.85-.8-1.36-1.08-.18-.1-.37-.2-.56-.28-.57-.25-1.17-.43-1.79-.54-.3-.05-.59-.09-.89-.11l1.16-5.56c.24.48.5.95.81,1.4.41.63.94,1.23,1.43,1.24.15,0,.28-.06.39-.16.11-.09.19-.2.26-.32.08-.14.16-.27.23-.38.89-1.3,1.47-.48,1.47-.48,2.3.83,1.56,5.94,1.56,5.94,0,0-.91,1.93-2.34.69Z"/>
  <path class="cls-17" d="M152.04,179.59c-.18-.1-.37-.2-.56-.28.23-.98.52-2.57.71-3.58.15,0,.28-.06.39-.16l-.54,4.02Z"/>
  <path class="cls-19" d="M153.76,181.02c.4-.73.65-1.52.75-2.34.03-1.41-.49-2.77-1.44-3.8.89-1.3,1.47-.48,1.47-.48,2.3.83,1.56,5.94,1.56,5.94,0,0-.9,1.93-2.34.69Z"/>
  <path class="cls-9" d="M153.76,181.02c.4-.73.65-1.52.75-2.34.03-1.41-.49-2.77-1.44-3.8.89-1.3,1.47-.48,1.47-.48,2.3.83,1.56,5.94,1.56,5.94,0,0-.9,1.93-2.34.69Z"/>
  <path class="cls-12" d="M101.41,162s-2.44,5.91,1.15,8.79c.08-.77.33-1.51.73-2.17.33-.39.56-.86.68-1.36-1.45-1.39-2.36-3.26-2.57-5.26Z"/>
  <g class="cls-13">
    <path d="M138.02,122.08c-.48.19-.99.27-1.5.21-.77.04-1.52.24-2.19.61.33-4.58,6.6-5.9,6.6-5.9-1.54,1.3-2.57,3.1-2.91,5.08Z"/>
    <path d="M146.88,163.55c.44.66.85,1.33,1.23,2.01-.85-.3-1.68-.66-2.49-1.07-6.42-3.25-12.79-10.19-16.35-17.64,2.22,1.05,4.27,2.41,6.11,4.04,3.45,2.98,6.62,6.28,9.46,9.84.73.91,1.42,1.86,2.05,2.83Z"/>
    <path d="M158.42,164.79c-1.25.81-2.66,1.33-4.13,1.54-.12-.28-.26-.55-.42-.81l5.26-2.19c-.27.47-.51.96-.71,1.46Z"/>
    <path d="M156.62,172.49s-2.08.35-1.89-1.53c.02-.17.05-.34.1-.5.14-.57.18-1.15.13-1.74-.02-.21-.05-.41-.09-.62-.11-.62-.31-1.22-.57-1.79-.12-.28-.26-.55-.42-.81l5.26-2.19c-.27.47-.51.96-.71,1.46-.29.71-.48,1.48-.21,1.89.09.12.22.2.36.23.13.02.27.02.4,0h.45c1.58,0,1.23.89,1.23.89.62,2.43-4.03,4.7-4.03,4.7Z"/>
    <path d="M158.57,166.91l-3.58,1.79c-.02-.21-.05-.41-.09-.62.95-.37,2.42-1.02,3.35-1.43.08.12.19.21.32.26Z"/>
    <path d="M156.62,172.49s-2.08.35-1.89-1.53c.82-.09,1.63-.33,2.36-.71,1.18-.77,2.01-1.96,2.33-3.33,1.58,0,1.23.89,1.23.89.62,2.41-4.03,4.67-4.03,4.67Z"/>
    <path class="cls-9" d="M156.62,172.49s-2.08.35-1.89-1.53c.82-.09,1.63-.33,2.36-.71,1.18-.77,2.01-1.96,2.33-3.33,1.58,0,1.23.89,1.23.89.62,2.41-4.03,4.67-4.03,4.67Z"/>
    <path class="cls-9" d="M138.02,122.08c-.48.19-.99.27-1.5.21-.77.04-1.52.24-2.19.61.33-4.58,6.6-5.9,6.6-5.9-1.54,1.3-2.57,3.1-2.91,5.08Z"/>
  </g>
  <path class="cls-19" d="M158.79,164.24c-1.25.82-2.66,1.36-4.13,1.57-.99.13-2,.13-2.99,0-1.4-.18-2.78-.56-4.08-1.11-.54-.21-1.06-.46-1.59-.72l-.11-.05c-6.11-3.12-12.16-9.58-15.77-16.62-2.46-4.8-3.79-9.84-3.24-14.31,1.63-13.14,12.53-22.62,24.32-21.16s20.06,13.29,18.43,26.44c-.51,4.53-1.44,9-2.77,13.36-.12.38-.24.76-.38,1.14-1.74,5-4.21,9.24-7.69,11.48Z"/>
  <path class="cls-9" d="M158.79,164.24c-1.25.82-2.66,1.36-4.13,1.57-.99.13-2,.13-2.99,0-1.4-.18-2.78-.56-4.08-1.11-.54-.21-1.06-.46-1.59-.72l-.11-.05c-6.11-3.12-12.16-9.58-15.77-16.62-2.46-4.8-3.79-9.84-3.24-14.31,1.63-13.14,12.53-22.62,24.32-21.16s20.06,13.29,18.43,26.44c-.51,4.53-1.44,9-2.77,13.36-.12.38-.24.76-.38,1.14-1.74,5-4.21,9.24-7.69,11.48Z"/>
  <path class="cls-19" d="M156.98,171.94s-2.08.35-1.89-1.54c.02-.17.05-.34.1-.5.14-.56.18-1.15.13-1.73-.02-.21-.05-.42-.09-.63-.11-.62-.31-1.22-.57-1.79-.12-.28-.26-.55-.42-.81l5.26-2.19c-.27.47-.51.96-.71,1.47-.29.7-.48,1.48-.21,1.88.09.12.21.2.36.24.13.02.27.02.4,0h.45c1.58,0,1.23.89,1.23.89.62,2.43-4.03,4.7-4.03,4.7Z"/>
  <path class="cls-17" d="M158.93,166.36l-3.58,1.79c-.02-.21-.05-.42-.09-.63.95-.37,2.42-1.02,3.35-1.43.07.12.19.22.32.27Z"/>
  <path class="cls-19" d="M156.98,171.94s-2.08.35-1.89-1.54c.83-.08,1.63-.32,2.36-.71,1.18-.77,2.01-1.96,2.33-3.33,1.58,0,1.23.89,1.23.89.62,2.42-4.03,4.68-4.03,4.68Z"/>
  <path class="cls-9" d="M156.98,171.94s-2.08.35-1.89-1.54c.83-.08,1.63-.32,2.36-.71,1.18-.77,2.01-1.96,2.33-3.33,1.58,0,1.23.89,1.23.89.62,2.42-4.03,4.68-4.03,4.68Z"/>
  <path class="cls-12" d="M141.28,116.45s-6.26,1.33-6.59,5.91c.68-.37,1.43-.58,2.2-.61.51.05,1.02-.03,1.49-.21.34-1.98,1.36-3.79,2.9-5.09Z"/>
  <path class="cls-19" d="M177.63,196.44c-.24-.49-.51-.96-.81-1.4-.43-.63-.96-1.23-1.44-1.23-.15,0-.3.06-.4.16-.1.09-.19.2-.26.32-.07.13-.15.26-.23.38-.89,1.31-1.46.5-1.46.5-2.31-.81-1.61-5.93-1.61-5.93,0,0,.89-1.93,2.33-.72.13.11.26.23.37.36.39.44.85.8,1.37,1.07.18.1.37.19.56.27.57.24,1.17.42,1.79.52.3.05.59.08.89.1l-1.09,5.59Z"/>
  <path class="cls-17" d="M175.38,193.81c-.15,0-.3.06-.4.16l.5-4.01c.18.1.37.19.56.27-.22.99-.49,2.58-.66,3.58Z"/>
  <path class="cls-19" d="M174.48,194.68c-.89,1.31-1.46.5-1.46.5-2.31-.81-1.61-5.93-1.61-5.93,0,0,.89-1.93,2.33-.72-.39.73-.63,1.53-.72,2.35-.02,1.41.5,2.76,1.46,3.79Z"/>
  <path class="cls-9" d="M174.48,194.68c-.89,1.31-1.46.5-1.46.5-2.31-.81-1.61-5.93-1.61-5.93,0,0,.89-1.93,2.33-.72-.39.73-.63,1.53-.72,2.35-.02,1.41.5,2.76,1.46,3.79Z"/>
  <path class="cls-12" d="M226.23,207.06s2.38-5.95-1.23-8.78c-.08.77-.32,1.51-.72,2.17-.33.39-.55.86-.66,1.36,1.47,1.38,2.4,3.24,2.62,5.24Z"/>
  <path class="cls-9" d="M179.54,203.97c-1.69-2.68-2.61-5.78-2.68-8.95-.43-.63-.96-1.23-1.44-1.23-.15,0-.3.06-.4.16-.1.09-.19.2-.26.32-.07.13-.15.26-.23.38-.89,1.31-1.46.5-1.46.5-2.31-.81-1.61-5.93-1.61-5.93,0,0,.89-1.93,2.33-.72.13.11.26.23.37.36.39.44.85.8,1.37,1.07.18.1.37.19.56.27.57.24,1.17.42,1.79.52.44-.9,1-1.74,1.66-2.5,2.2-2.35,4.93-4.15,7.96-5.25-1.25,7.94-3.59,16.28-7.94,20.98Z"/>
  <path class="cls-9" d="M166.99,206.71c-.65-.1-1.29-.24-1.92-.43-.57-.16-1.14-.36-1.71-.58l-.37-.15c-.47-.21-.97-.44-1.44-.68s-.72-.38-1.09-.59c-6.81-3.93-13.42-11.82-16.37-19.84-.84-2.19-1.37-4.48-1.6-6.82-.11-1.24-.09-2.48.05-3.71.43-3.53,1.57-6.94,3.36-10.02.2-.32.38-.64.59-.95,4.47-6.9,12-11.07,20-10.24-1.74,5.02-4.2,9.3-7.69,11.53-.29.7-.48,1.48-.21,1.88.09.12.21.2.36.24.13.02.27.02.4,0h.45c1.58,0,1.23.89,1.23.89.62,2.37-4.03,4.63-4.03,4.63,0,0-2.08.35-1.89-1.54.02-.17.05-.34.1-.5.14-.56.18-1.15.13-1.73-.02-.21-.05-.42-.09-.63-.11-.62-.31-1.22-.57-1.79-.99.13-2,.13-2.99,0-1.4-.18-2.78-.56-4.08-1.11.19.3.35.6.52.89,1.67,2.69,2.58,5.78,2.64,8.95.41.63.94,1.23,1.43,1.24.15,0,.28-.06.39-.16.11-.09.19-.2.26-.32.08-.14.16-.27.23-.38.89-1.3,1.47-.48,1.47-.48,2.3.83,1.56,5.94,1.56,5.94,0,0-.89,1.92-2.34.69-.13-.11-.25-.23-.36-.36-.39-.44-.85-.8-1.36-1.08-.18-.1-.37-.2-.56-.28-.57-.25-1.17-.43-1.79-.54-.44.9-1.01,1.73-1.67,2.48l-.36.39.12.11c2.87,2.59,5.53,5.42,7.94,8.45.73.94,1.43,1.89,2.05,2.85.44.66.89,1.33,1.23,2,1.66,2.69,2.57,5.78,2.63,8.95.41.63.89,1.23,1.43,1.24.15,0,.28-.06.39-.16.11-.09.19-.2.26-.32.09-.14.16-.27.24-.38.89-1.29,1.46-.47,1.46-.47,1.01.44,1.43,1.64,1.58,2.86Z"/>
  <g class="cls-13">
    <path d="M156.8,161.96c-.48.19-.99.26-1.5.21-.77.04-1.52.25-2.2.61.34-4.57,6.6-5.9,6.6-5.9-1.54,1.3-2.57,3.1-2.9,5.08Z"/>
    <path d="M188.03,178.64c-.11.89-.24,1.87-.38,2.82-4.07,1.24-7.97,1.63-11.24.59-.72.23-1.44.58-1.57,1.04-.06.14-.06.29,0,.43.06.12.14.24.24.33.1.11.2.22.3.33,1,1.23.06,1.54.06,1.54-1.43,2-6.14-.13-6.14-.13,0,0-1.6-1.39,0-2.43.14-.09.29-.17.45-.24.53-.26,1.01-.6,1.42-1.01.14-.15.29-.3.41-.47.4-.48.74-1.01,1.01-1.57-.74-.68-1.39-1.45-1.92-2.29-3.78-5.91-3.71-16.31-.72-25.32,11.62,1.66,19.69,13.38,18.08,26.39Z"/>
    <path d="M177.19,204.65c-1.25.81-2.65,1.33-4.12,1.54-.12-.28-.26-.55-.42-.81l5.26-2.18c-.27.47-.51.95-.72,1.45Z"/>
    <path d="M175.4,212.34s-2.09.35-1.89-1.54c.01-.17.04-.34.09-.5.14-.56.19-1.15.13-1.73-.01-.21-.04-.42-.08-.63-.12-.62-.31-1.22-.57-1.79-.12-.28-.26-.55-.42-.81l5.26-2.18c-.27.47-.51.95-.72,1.45-.28.71-.47,1.49-.21,1.89.08.12.21.21.35.24.14.03.28.03.41,0h.45c1.58,0,1.23.89,1.23.89.61,2.46-4.03,4.7-4.03,4.7Z"/>
    <path d="M177.34,206.78l-3.58,1.79c0-.2-.03-.41-.08-.62.94-.37,2.42-1.02,3.35-1.43.07.12.18.21.31.26Z"/>
    <path d="M175.39,212.34s-2.08.35-1.89-1.54c.83-.08,1.63-.32,2.36-.71,1.18-.77,2.02-1.96,2.34-3.33,1.58,0,1.23.89,1.23.89.61,2.44-4.04,4.68-4.04,4.68Z"/>
    <path class="cls-9" d="M175.39,212.34s-2.08.35-1.89-1.54c.83-.08,1.63-.32,2.36-.71,1.18-.77,2.02-1.96,2.34-3.33,1.58,0,1.23.89,1.23.89.61,2.44-4.04,4.68-4.04,4.68Z"/>
    <path class="cls-9" d="M156.8,161.96c-.48.19-.99.26-1.5.21-.77.04-1.52.25-2.2.61.34-4.57,6.6-5.9,6.6-5.9-1.54,1.3-2.57,3.1-2.9,5.08Z"/>
  </g>
  <path class="cls-19" d="M186.75,179.38c-1.62,13.14-6.15,29.02-17.96,27.59s-26.41-19.68-24.79-32.85,12.53-22.62,24.32-21.16,20.06,13.27,18.43,26.42Z"/>
  <path class="cls-19" d="M174.11,213.1s-2.09.35-1.89-1.54c.02-.17.05-.34.09-.5.15-.56.19-1.15.13-1.73,0-.21-.05-.42-.09-.62-.18-.92-.52-1.79-.99-2.59l5.26-2.18s-1.49,2.5-.89,3.34c.08.12.21.21.36.24.13.03.27.03.4,0h.45c1.58,0,1.23.89,1.23.89.59,2.42-4.05,4.69-4.05,4.69Z"/>
  <path class="cls-17" d="M176.06,207.52l-3.58,1.79c0-.21-.05-.42-.09-.62.95-.38,2.42-1.02,3.35-1.44.07.13.19.22.32.27Z"/>
  <path class="cls-19" d="M174.11,213.1s-2.09.35-1.89-1.54c.82-.08,1.63-.32,2.36-.7,1.18-.77,2.01-1.97,2.33-3.34,1.58,0,1.23.89,1.23.89.62,2.42-4.03,4.68-4.03,4.68Z"/>
  <g>
    <rect class="cls-18" x="265.26" y="180.53" width="463.79" height="16.59" rx="5.67" ry="5.67"/>
    <path d="M272.05,188.67c0,1.9,1.55,3.44,3.44,3.44.87,0,1.67-.33,2.28-.87l2.2,2.2s.09.06.15.06.11-.02.15-.06c.08-.08.08-.21,0-.29l-2.2-2.2c.54-.61.87-1.41.87-2.28,0-1.9-1.55-3.44-3.44-3.44s-3.44,1.54-3.44,3.44ZM278.53,188.67c0,1.67-1.36,3.03-3.03,3.03s-3.03-1.36-3.03-3.03,1.36-3.03,3.03-3.03,3.03,1.36,3.03,3.03Z"/>
    <text class="cls-16" transform="translate(286.36 191.35)"><tspan x="0" y="0">Search</tspan></text>
    <rect class="cls-5" x="265.26" y="204.53" width="74.78" height="13.96" rx="2.83" ry="2.83"/>
    <rect class="cls-5" x="265.26" y="222.4" width="74.78" height="13.96" rx="2.83" ry="2.83"/>
    <rect class="cls-5" x="342.92" y="204.7" width="74.78" height="13.96" rx="2.83" ry="2.83"/>
    <rect class="cls-5" x="342.92" y="222.57" width="74.78" height="13.96" rx="2.83" ry="2.83"/>
    <rect class="cls-5" x="420.95" y="204.62" width="74.78" height="13.96" rx="2.83" ry="2.83"/>
    <rect class="cls-5" x="420.95" y="222.49" width="74.78" height="13.96" rx="2.83" ry="2.83"/>
    <rect class="cls-5" x="498.61" y="204.79" width="74.78" height="13.96" rx="2.83" ry="2.83"/>
    <rect class="cls-5" x="498.61" y="222.66" width="74.78" height="13.96" rx="2.83" ry="2.83"/>
    <rect class="cls-5" x="576.33" y="204.7" width="74.78" height="13.96" rx="2.83" ry="2.83"/>
    <rect class="cls-5" x="576.33" y="222.57" width="74.78" height="13.96" rx="2.83" ry="2.83"/>
    <rect class="cls-5" x="654.27" y="204.7" width="74.78" height="13.96" rx="2.83" ry="2.83"/>
    <rect class="cls-5" x="654.27" y="222.57" width="74.78" height="13.96" rx="2.83" ry="2.83"/>
    <text class="cls-15" transform="translate(270.85 213.44)"><tspan x="0" y="0">Platform</tspan></text>
    <text class="cls-15" transform="translate(270.85 231.39)"><tspan x="0" y="0">Instagram Likes</tspan></text>
    <text class="cls-15" transform="translate(347.78 213.44)"><tspan x="0" y="0">Niche</tspan></text>
    <text class="cls-15" transform="translate(347.78 231.39)"><tspan x="0" y="0">Instagram Eng Rate</tspan></text>
    <text class="cls-15" transform="translate(425.68 213.44)"><tspan x="0" y="0">Gender</tspan></text>
    <text class="cls-15" transform="translate(425.68 231.39)"><tspan x="0" y="0">TikTok Followers</tspan></text>
    <text class="cls-15" transform="translate(502.62 213.44)"><tspan x="0" y="0">Nationality</tspan></text>
    <text class="cls-15" transform="translate(502.62 231.39)"><tspan x="0" y="0">TikTok Views</tspan></text>
    <text class="cls-15" transform="translate(580.59 213.44)"><tspan x="0" y="0">Region</tspan></text>
    <text class="cls-15" transform="translate(580.59 231.39)"><tspan x="0" y="0">TikTok Likes</tspan></text>
    <text class="cls-15" transform="translate(657.53 213.44)"><tspan x="0" y="0">Instagram Followers</tspan></text>
    <text class="cls-15" transform="translate(657.53 231.39)"><tspan x="0" y="0">TikTok Eng Rate</tspan></text>
    <g>
      <line class="cls-7" x1="332.26" y1="210.36" x2="334.56" y2="213.22"/>
      <line class="cls-7" x1="336.71" y1="210.36" x2="334.56" y2="213.22"/>
      <g>
        <line class="cls-7" x1="332.55" y1="228.31" x2="334.85" y2="231.17"/>
        <line class="cls-7" x1="337" y1="228.31" x2="334.85" y2="231.17"/>
      </g>
    </g>
    <g>
      <line class="cls-7" x1="409.29" y1="210.36" x2="411.59" y2="213.22"/>
      <line class="cls-7" x1="413.74" y1="210.36" x2="411.59" y2="213.22"/>
      <g>
        <line class="cls-7" x1="409.58" y1="228.31" x2="411.88" y2="231.17"/>
        <line class="cls-7" x1="414.03" y1="228.31" x2="411.88" y2="231.17"/>
      </g>
    </g>
    <g>
      <line class="cls-7" x1="487.12" y1="210.36" x2="489.42" y2="213.22"/>
      <line class="cls-7" x1="491.57" y1="210.36" x2="489.42" y2="213.22"/>
      <g>
        <line class="cls-7" x1="487.41" y1="228.31" x2="489.71" y2="231.17"/>
        <line class="cls-7" x1="491.86" y1="228.31" x2="489.71" y2="231.17"/>
      </g>
    </g>
    <g>
      <line class="cls-7" x1="564.25" y1="210.36" x2="566.56" y2="213.22"/>
      <line class="cls-7" x1="568.7" y1="210.36" x2="566.56" y2="213.22"/>
      <g>
        <line class="cls-7" x1="564.54" y1="228.31" x2="566.85" y2="231.17"/>
        <line class="cls-7" x1="568.99" y1="228.31" x2="566.85" y2="231.17"/>
      </g>
    </g>
    <g>
      <line class="cls-7" x1="642.29" y1="210.36" x2="644.59" y2="213.22"/>
      <line class="cls-7" x1="646.74" y1="210.36" x2="644.59" y2="213.22"/>
      <g>
        <line class="cls-7" x1="642.58" y1="228.31" x2="644.88" y2="231.17"/>
        <line class="cls-7" x1="647.03" y1="228.31" x2="644.88" y2="231.17"/>
      </g>
    </g>
    <g>
      <line class="cls-7" x1="719.16" y1="210.36" x2="721.46" y2="213.22"/>
      <line class="cls-7" x1="723.61" y1="210.36" x2="721.46" y2="213.22"/>
      <g>
        <line class="cls-7" x1="719.45" y1="228.31" x2="721.75" y2="231.17"/>
        <line class="cls-7" x1="723.9" y1="228.31" x2="721.75" y2="231.17"/>
      </g>
    </g>
  </g>
  <g>
    <rect class="cls-8" x="291.08" y="244.27" width="96.36" height="330.66" rx="5.67" ry="5.67"/>
    <line class="cls-6" x1="294.79" y1="314.77" x2="383.73" y2="314.77"/>
    <line class="cls-6" x1="294.79" y1="375.53" x2="383.73" y2="375.53"/>
    <line class="cls-6" x1="294.79" y1="465.14" x2="383.73" y2="465.14"/>
    <g>
      <circle class="cls-27" cx="338.93" cy="271.24" r="14.91"/>
      <polygon class="cls-27" points="330.37 288.35 329.7 281.55 343.15 279.03 351.09 298.37 337.28 314.26 327.43 294.92 330.37 288.35"/>
      <path class="cls-14" d="M329.48,284.95l2.94.66s-2.31-7.33-1.53-8.03c.78-.7,2.71.4,2.71.4l2.02,2.27,2.46-2.51s2.67-3.32,3.72-4.26-.63-4.4-.63-4.4c0,0,15.52-4.19,9.75-11.71,0,0-3.39-5.9-4.49-3.98-1.1,1.92-2.42-1.13-2.42-1.13l-4.02.76s-7.92-4.67-15.45,5.32c-7.52,10,4.93,26.59,4.93,26.59h0Z"/>
      <path class="cls-19" d="M311.61,314.39c.14-2.29.26-4.47.35-6.36.47-10.03,16.86-16.71,16.86-16.71,0,0,.07.11.22.29.9,1.13,4.58,5.24,11.02,6.39,5.74,1.03,7.63-3.84,8.21-6.17.17-.71.22-1.19.22-1.19l16.86,11.36c1.09,2.22,1.52,7,1.61,12.37,0,.04-55.41.84-55.35,0Z"/>
    </g>
    <text class="cls-29" transform="translate(294.79 324.29)"><tspan x="0" y="0">Influencer Name</tspan></text>
    <text class="cls-28" transform="translate(295.58 359.4)"><tspan x="0" y="0">Gender</tspan></text>
    <text class="cls-28" transform="translate(294.73 384.71)"><tspan x="0" y="0">Instagram</tspan></text>
    <text class="cls-28" transform="translate(294.73 335.11)"><tspan x="0" y="0">Nationality</tspan></text>
    <text class="cls-28" transform="translate(294.73 404.95)"><tspan x="0" y="0">Follower Count</tspan></text>
    <text class="cls-28" transform="translate(294.73 426.05)"><tspan x="0" y="0">Average Likes</tspan></text>
    <text class="cls-28" transform="translate(294.73 448.31)"><tspan x="0" y="0">Engagement Rate</tspan></text>
    <text class="cls-28" transform="translate(294.73 477.64)"><tspan x="0" y="0">TikTok</tspan></text>
    <text class="cls-28" transform="translate(294.73 497.88)"><tspan x="0" y="0">Follower Count</tspan></text>
    <text class="cls-28" transform="translate(294.73 518.98)"><tspan x="0" y="0">Average Views</tspan></text>
    <text class="cls-28" transform="translate(294.73 539.22)"><tspan x="0" y="0">Average Likes</tspan></text>
    <text class="cls-28" transform="translate(294.73 560.48)"><tspan x="0" y="0">Engagement Rate</tspan></text>
    <text class="cls-25" transform="translate(294.61 342.78)"><tspan x="0" y="0">U.A.E</tspan></text>
    <text class="cls-25" transform="translate(294.85 366.97)"><tspan x="0" y="0">Male</tspan></text>
    <text class="cls-25" transform="translate(294.73 391.49)"><tspan x="0" y="0">instagram.com/user</tspan></text>
    <text class="cls-24" transform="translate(294.67 414.49)"><tspan x="0" y="0">177.4k</tspan></text>
    <text class="cls-24" transform="translate(294.91 436.78)"><tspan x="0" y="0">1.29k</tspan></text>
    <text class="cls-25" transform="translate(294.73 486.6)"><tspan x="0" y="0">tiktok.com/@user</tspan></text>
    <text class="cls-24" transform="translate(294.55 506.15)"><tspan x="0" y="0">38.4k</tspan></text>
    <text class="cls-24" transform="translate(294.55 527.26)"><tspan x="0" y="0">30.2k</tspan></text>
    <text class="cls-24" transform="translate(294.73 547.6)"><tspan x="0" y="0">1.7k</tspan></text>
    <g>
      <rect class="cls-8" x="292.51" y="247.54" width="28.59" height="8.87" rx="4.31" ry="4.31"/>
      <text class="cls-25" transform="translate(295.88 254.01)"><tspan x="0" y="0">Foodie</tspan></text>
    </g>
    <g>
      <text class="cls-24" transform="translate(294.55 458.64)"><tspan x="0" y="0">0.85</tspan></text>
      <text class="cls-24" transform="translate(310.17 458.64)"><tspan x="0" y="0">%</tspan></text>
    </g>
    <g>
      <text class="cls-24" transform="translate(295.35 569.44)"><tspan x="0" y="0">4.44</tspan></text>
      <text class="cls-24" transform="translate(310.98 569.44)"><tspan x="0" y="0">%</tspan></text>
    </g>
  </g>
  <g>
    <rect class="cls-8" x="396.36" y="243.66" width="96.36" height="330.66" rx="5.67" ry="5.67"/>
    <line class="cls-6" x1="400.07" y1="314.17" x2="489.01" y2="314.17"/>
    <line class="cls-6" x1="400.07" y1="464.54" x2="489.01" y2="464.54"/>
    <text class="cls-29" transform="translate(400.07 323.69)"><tspan x="0" y="0">Influencer Name</tspan></text>
    <text class="cls-28" transform="translate(400.86 358.8)"><tspan x="0" y="0">Gender</tspan></text>
    <text class="cls-28" transform="translate(400.86 384.1)"><tspan x="0" y="0">Instagram</tspan></text>
    <text class="cls-28" transform="translate(400.86 334.51)"><tspan x="0" y="0">Nationality</tspan></text>
    <text class="cls-28" transform="translate(400.86 404.34)"><tspan x="0" y="0">Follower Count</tspan></text>
    <text class="cls-28" transform="translate(400.86 425.44)"><tspan x="0" y="0">Average Likes</tspan></text>
    <text class="cls-28" transform="translate(400.86 447.71)"><tspan x="0" y="0">Engagement Rate</tspan></text>
    <text class="cls-28" transform="translate(400.86 477.03)"><tspan x="0" y="0">TikTok</tspan></text>
    <text class="cls-28" transform="translate(400.86 497.28)"><tspan x="0" y="0">Follower Count</tspan></text>
    <text class="cls-28" transform="translate(400.86 518.38)"><tspan x="0" y="0">Average Views</tspan></text>
    <text class="cls-28" transform="translate(400.86 538.62)"><tspan x="0" y="0">Average Likes</tspan></text>
    <text class="cls-28" transform="translate(400.86 559.87)"><tspan x="0" y="0">Engagement Rate</tspan></text>
    <g>
      <polygon class="cls-14" points="460.08 294.38 440.07 294.38 440.07 267.31 457.37 276.78 460.08 294.38"/>
      <circle class="cls-27" cx="443.77" cy="276.62" r="12.99"/>
      <polygon class="cls-27" points="436.31 291.52 435.73 285.59 447.44 283.4 454.36 300.25 442.33 314.08 433.76 297.24 436.31 291.52"/>
      <path class="cls-19" d="M471.76,313.58c0,.51-18.69.51-28.71.51-9.24,0-25.52.18-25.73,0,.04-.11.08-6.28.12-6.39,2.28-5.94,6.78-8.84,9.51-10.11,1.35-.63,2.27-.86,2.27-.86l3.21-5.78,2.26,4.21,1.66,3.1,6.83,12.73,5.89-14.66,1.82-4.55.47-1.16,2.22,1.73,2.11,1.64,4.24.94,3.44.76,4.67,1.03c1.89,1.54,3.04,4.47,3.68,8.1.02.13.02,8.62.04,8.75Z"/>
      <path class="cls-14" d="M436.94,261.86c1.58-2.66,4.49-4.48,7.57-4.75,3.08-.27,6.26,1.02,8.28,3.37,1.2,1.4,1.99,3.11,3.16,4.53,2.52,3.06,6.82,4.85,7.93,8.66.48,1.66.24,3.44,0,5.15-.21,1.47-.42,2.94-.63,4.41-.16,1.14-.32,2.35.11,3.42.5,1.26,1.71,2.08,2.48,3.19,1.32,1.89,1.23,4.65-.23,6.44-.63.78-1.46,1.36-2.13,2.11s-1.15,1.78-.87,2.74c.53,1.84,3.41,2.28,3.73,4.17.16.97-.5,1.93-1.38,2.37s-1.9.45-2.87.34c-3.69-.45-7.11-2.76-8.91-6.01-1.8-3.26-1.93-7.38-.34-10.74,1.3-2.76,3.73-5.2,3.7-8.26-.01-1.66-.78-3.22-1.52-4.71-1.53-3.05-3.06-6.09-4.58-9.14-.82-1.63-1.77-3.39-3.45-4.09-1.3-.54-2.78-.33-4.17-.11s-2.87.44-4.17-.1-2.29-2.11-1.67-3.38"/>
      <path class="cls-14" d="M439.21,262c-2.51-.83-5.32.5-7.02,2.52-1.7,2.02-2.52,4.62-3.31,7.14-.45,1.44-.9,2.89-1.35,4.33-.42,1.36-.85,2.72-1.27,4.08-.5,1.6-1,3.3-.59,4.92.3,1.17,1.05,2.24,1.07,3.45.02,1.26-.77,2.37-1.47,3.43-.69,1.06-1.35,2.31-1.01,3.53.5,1.86,3.08,2.88,2.94,4.79-.05.64-.42,1.23-.41,1.87,0,.82.65,1.52,1.4,1.85.75.33,1.59.34,2.41.33,2.5-.04,5-.34,7.45-.89.94-.21,1.9-.47,2.68-1.03s1.37-1.49,1.27-2.45c-.16-1.49-1.76-2.34-2.57-3.6-.8-1.24-.78-2.82-1.12-4.25-.47-1.97-1.64-3.69-2.51-5.52-3.29-6.88-2.14-15.64,2.81-21.43.44-.51.92-1.03,1.1-1.68.18-.65-.05-1.48-.69-1.7"/>
    </g>
    <text class="cls-25" transform="translate(400.93 342.51)"><tspan x="0" y="0">United Kingdom</tspan></text>
    <text class="cls-25" transform="translate(401.18 366.69)"><tspan x="0" y="0">Female</tspan></text>
    <text class="cls-25" transform="translate(401.05 391.21)"><tspan x="0" y="0">instagram.com/user</tspan></text>
    <text class="cls-24" transform="translate(400.99 414.22)"><tspan x="0" y="0">34.4k</tspan></text>
    <text class="cls-24" transform="translate(401.24 436.51)"><tspan x="0" y="0">546</tspan></text>
    <text class="cls-25" transform="translate(401.05 486.32)"><tspan x="0" y="0">tiktok.com/@user</tspan></text>
    <text class="cls-24" transform="translate(400.87 505.87)"><tspan x="0" y="0">12.1k</tspan></text>
    <text class="cls-24" transform="translate(400.87 526.99)"><tspan x="0" y="0">14.3k</tspan></text>
    <text class="cls-24" transform="translate(401.05 547.32)"><tspan x="0" y="0">343</tspan></text>
    <g>
      <rect class="cls-8" x="398.36" y="246.95" width="64.87" height="8.87" rx="4.31" ry="4.31"/>
      <text class="cls-25" transform="translate(401.73 253.43)"><tspan x="0" y="0">Hijabi, Fashionista</tspan></text>
    </g>
    <g>
      <text class="cls-24" transform="translate(400.86 458.16)"><tspan x="0" y="0">1.65</tspan></text>
      <text class="cls-24" transform="translate(416.49 458.16)"><tspan x="0" y="0">%</tspan></text>
    </g>
  </g>
  <g>
    <rect class="cls-8" x="501.59" y="244.57" width="96.36" height="330.66" rx="5.67" ry="5.67"/>
    <line class="cls-6" x1="505.31" y1="315.07" x2="594.24" y2="315.07"/>
    <line class="cls-6" x1="505.31" y1="375.83" x2="594.24" y2="375.83"/>
    <line class="cls-6" x1="505.31" y1="465.44" x2="594.24" y2="465.44"/>
    <g>
      <circle class="cls-27" cx="549.45" cy="271.54" r="14.91"/>
      <polygon class="cls-27" points="540.89 288.66 540.21 281.85 553.66 279.33 561.61 298.67 547.79 314.56 537.95 295.22 540.89 288.66"/>
      <path class="cls-14" d="M540,285.26l2.94.66s-2.31-7.33-1.53-8.03c.78-.7,2.71.4,2.71.4l2.02,2.27,2.46-2.51s2.67-3.32,3.72-4.26-.63-4.4-.63-4.4c0,0,15.52-4.19,9.75-11.71,0,0-3.39-5.9-4.49-3.98-1.1,1.92-2.42-1.13-2.42-1.13l-4.02.76s-7.92-4.67-15.45,5.32c-7.52,10,4.93,26.59,4.93,26.59h0Z"/>
      <path class="cls-19" d="M522.12,314.69c.14-2.29.26-4.47.35-6.36.47-10.03,16.86-16.71,16.86-16.71,0,0,.07.11.22.29.9,1.13,4.58,5.24,11.02,6.39,5.74,1.03,7.63-3.84,8.21-6.17.17-.71.22-1.19.22-1.19l16.86,11.36c1.09,2.22,1.52,7,1.61,12.37,0,.04-55.41.84-55.35,0Z"/>
    </g>
    <text class="cls-29" transform="translate(505.31 324.59)"><tspan x="0" y="0">Influencer Name</tspan></text>
    <text class="cls-28" transform="translate(506.1 359.71)"><tspan x="0" y="0">Gender</tspan></text>
    <text class="cls-28" transform="translate(506.1 385.01)"><tspan x="0" y="0">Instagram</tspan></text>
    <text class="cls-28" transform="translate(506.1 335.42)"><tspan x="0" y="0">Nationality</tspan></text>
    <text class="cls-28" transform="translate(506.1 405.25)"><tspan x="0" y="0">Follower Count</tspan></text>
    <text class="cls-28" transform="translate(506.1 426.35)"><tspan x="0" y="0">Average Likes</tspan></text>
    <text class="cls-28" transform="translate(506.1 448.61)"><tspan x="0" y="0">Engagement Rate</tspan></text>
    <text class="cls-28" transform="translate(506.1 477.94)"><tspan x="0" y="0">TikTok</tspan></text>
    <text class="cls-28" transform="translate(506.1 498.18)"><tspan x="0" y="0">Follower Count</tspan></text>
    <text class="cls-28" transform="translate(506.1 519.28)"><tspan x="0" y="0">Average Views</tspan></text>
    <text class="cls-28" transform="translate(506.1 539.52)"><tspan x="0" y="0">Average Likes</tspan></text>
    <text class="cls-28" transform="translate(506.1 560.78)"><tspan x="0" y="0">Engagement Rate</tspan></text>
    <text class="cls-25" transform="translate(505.38 342.93)"><tspan x="0" y="0">India</tspan></text>
    <text class="cls-25" transform="translate(505.62 367.11)"><tspan x="0" y="0">Male</tspan></text>
    <text class="cls-25" transform="translate(505.5 391.63)"><tspan x="0" y="0">instagram.com/user</tspan></text>
    <text class="cls-24" transform="translate(505.44 414.64)"><tspan x="0" y="0">187.1k</tspan></text>
    <text class="cls-24" transform="translate(506.68 436.92)"><tspan x="0" y="0">2.45k</tspan></text>
    <text class="cls-25" transform="translate(506.5 486.74)"><tspan x="0" y="0">tiktok.com/@user</tspan></text>
    <text class="cls-24" transform="translate(506.32 506.29)"><tspan x="0" y="0">32.0k</tspan></text>
    <text class="cls-24" transform="translate(506.32 527.4)"><tspan x="0" y="0">270.0k</tspan></text>
    <text class="cls-24" transform="translate(506.5 547.74)"><tspan x="0" y="0">11.0k</tspan></text>
    <g>
      <rect class="cls-8" x="502.8" y="247.25" width="49.43" height="8.87" rx="4.31" ry="4.31"/>
      <text class="cls-25" transform="translate(506.17 253.73)"><tspan x="0" y="0">Entrepreneur</tspan></text>
    </g>
    <g>
      <text class="cls-24" transform="translate(506.32 458.46)"><tspan x="0" y="0">1.45</tspan></text>
      <text class="cls-24" transform="translate(521.95 458.46)"><tspan x="0" y="0">%</tspan></text>
    </g>
    <g>
      <text class="cls-24" transform="translate(506.5 568.39)"><tspan x="0" y="0">34.49</tspan></text>
      <text class="cls-24" transform="translate(526.13 568.39)"><tspan x="0" y="0">%</tspan></text>
    </g>
  </g>
  <g>
    <rect class="cls-8" x="606.88" y="243.97" width="96.36" height="330.66" rx="5.67" ry="5.67"/>
    <line class="cls-6" x1="610.59" y1="314.47" x2="699.53" y2="314.47"/>
    <line class="cls-6" x1="610.59" y1="375.23" x2="699.53" y2="375.23"/>
    <line class="cls-6" x1="610.59" y1="464.84" x2="699.53" y2="464.84"/>
    <text class="cls-29" transform="translate(610.59 323.99)"><tspan x="0" y="0">Influencer Name</tspan></text>
    <text class="cls-28" transform="translate(611.38 359.1)"><tspan x="0" y="0">Gender</tspan></text>
    <text class="cls-28" transform="translate(611.38 384.4)"><tspan x="0" y="0">Instagram</tspan></text>
    <text class="cls-28" transform="translate(611.38 334.81)"><tspan x="0" y="0">Nationality</tspan></text>
    <text class="cls-28" transform="translate(611.38 404.64)"><tspan x="0" y="0">Follower Count</tspan></text>
    <text class="cls-28" transform="translate(611.38 425.74)"><tspan x="0" y="0">Average Likes</tspan></text>
    <text class="cls-28" transform="translate(611.38 448.01)"><tspan x="0" y="0">Engagement Rate</tspan></text>
    <text class="cls-28" transform="translate(611.38 477.34)"><tspan x="0" y="0">TikTok</tspan></text>
    <text class="cls-28" transform="translate(611.38 497.58)"><tspan x="0" y="0">Follower Count</tspan></text>
    <text class="cls-28" transform="translate(611.38 518.68)"><tspan x="0" y="0">Average Views</tspan></text>
    <text class="cls-28" transform="translate(611.38 538.92)"><tspan x="0" y="0">Average Likes</tspan></text>
    <text class="cls-28" transform="translate(611.38 560.17)"><tspan x="0" y="0">Engagement Rate</tspan></text>
    <g>
      <polygon class="cls-14" points="670.59 294.68 650.59 294.68 650.59 267.61 667.89 277.09 670.59 294.68"/>
      <circle class="cls-27" cx="654.29" cy="276.92" r="12.99"/>
      <polygon class="cls-27" points="646.83 291.83 646.24 285.9 657.96 283.7 664.88 300.55 652.85 314.39 644.27 297.54 646.83 291.83"/>
      <path class="cls-19" d="M682.28,313.88c0,.51-18.69.51-28.71.51-9.24,0-25.52.18-25.73,0,.04-.11.08-6.28.12-6.39,2.28-5.94,6.78-8.84,9.51-10.11,1.35-.63,2.27-.86,2.27-.86l3.21-5.78,2.26,4.21,1.66,3.1,6.83,12.73,5.89-14.66,1.82-4.55.47-1.16,2.22,1.73,2.11,1.64,4.24.94,3.44.76,4.67,1.03c1.89,1.54,3.04,4.47,3.68,8.1.02.13.02,8.62.04,8.75Z"/>
      <path class="cls-14" d="M647.45,262.16c1.58-2.66,4.49-4.48,7.57-4.75,3.08-.27,6.26,1.02,8.28,3.37,1.2,1.4,1.99,3.11,3.16,4.53,2.52,3.06,6.82,4.85,7.93,8.66.48,1.66.24,3.44,0,5.15-.21,1.47-.42,2.94-.63,4.41-.16,1.14-.32,2.35.11,3.42.5,1.26,1.71,2.08,2.48,3.19,1.32,1.89,1.23,4.65-.23,6.44-.63.78-1.46,1.36-2.13,2.11s-1.15,1.78-.87,2.74c.53,1.84,3.41,2.28,3.73,4.17.16.97-.5,1.93-1.38,2.37s-1.9.45-2.87.34c-3.69-.45-7.11-2.76-8.91-6.01-1.8-3.26-1.93-7.38-.34-10.74,1.3-2.76,3.73-5.2,3.7-8.26-.01-1.66-.78-3.22-1.52-4.71-1.53-3.05-3.06-6.09-4.58-9.14-.82-1.63-1.77-3.39-3.45-4.09-1.3-.54-2.78-.33-4.17-.11s-2.87.44-4.17-.1-2.29-2.11-1.67-3.38"/>
      <path class="cls-14" d="M649.73,262.3c-2.51-.83-5.32.5-7.02,2.52-1.7,2.02-2.52,4.62-3.31,7.14-.45,1.44-.9,2.89-1.35,4.33-.42,1.36-.85,2.72-1.27,4.08-.5,1.6-1,3.3-.59,4.92.3,1.17,1.05,2.24,1.07,3.45.02,1.26-.77,2.37-1.47,3.43-.69,1.06-1.35,2.31-1.01,3.53.5,1.86,3.08,2.88,2.94,4.79-.05.64-.42,1.23-.41,1.87,0,.82.65,1.52,1.4,1.85.75.33,1.59.34,2.41.33,2.5-.04,5-.34,7.45-.89.94-.21,1.9-.47,2.68-1.03s1.37-1.49,1.27-2.45c-.16-1.49-1.76-2.34-2.57-3.6-.8-1.24-.78-2.82-1.12-4.25-.47-1.97-1.64-3.69-2.51-5.52-3.29-6.88-2.14-15.64,2.81-21.43.44-.51.92-1.03,1.1-1.68.18-.65-.05-1.48-.69-1.7"/>
    </g>
    <text class="cls-25" transform="translate(611.02 343.02)"><tspan x="0" y="0">Russia</tspan></text>
    <text class="cls-25" transform="translate(611.26 367.21)"><tspan x="0" y="0">Female</tspan></text>
    <text class="cls-25" transform="translate(611.14 391.73)"><tspan x="0" y="0">instagram.com/user</tspan></text>
    <text class="cls-24" transform="translate(611.08 414.73)"><tspan x="0" y="0">363.4k</tspan></text>
    <text class="cls-25" transform="translate(611.14 486.84)"><tspan x="0" y="0">tiktok.com/@user</tspan></text>
    <text class="cls-24" transform="translate(611.96 506.39)"><tspan x="0" y="0">20.2k</tspan></text>
    <text class="cls-24" transform="translate(611.96 527.5)"><tspan x="0" y="0">32.2k</tspan></text>
    <text class="cls-24" transform="translate(612.14 547.83)"><tspan x="0" y="0">222</tspan></text>
    <g>
      <rect class="cls-8" x="608.73" y="247.25" width="34.87" height="8.87" rx="4.31" ry="4.31"/>
      <text class="cls-25" transform="translate(612.1 253.73)"><tspan x="0" y="0">Lifestyle</tspan></text>
    </g>
    <g>
      <text class="cls-24" transform="translate(612 458.46)"><tspan x="0" y="0">0.32</tspan></text>
      <text class="cls-24" transform="translate(627.63 458.46)"><tspan x="0" y="0">%</tspan></text>
    </g>
    <g>
      <text class="cls-24" transform="translate(611.59 568.39)"><tspan x="0" y="0">1.10</tspan></text>
      <text class="cls-24" transform="translate(627.22 568.39)"><tspan x="0" y="0">%</tspan></text>
    </g>
    <text class="cls-24" transform="translate(611.14 436.2)"><tspan x="0" y="0">1.12k</tspan></text>
  </g>
  <g id="Group_42" data-name="Group 42">
    <path id="Path_757-1097" data-name="Path 757-1097" class="cls-23" d="M691.55.57s-23.57-6.64-30.54,25.56c-6.97,32.2-1.66,48.47-1.66,48.47l52.62-6.14s14.93-58.1-20.42-67.89Z"/>
    <path id="Path_758-1098" data-name="Path 758-1098" class="cls-1" d="M656.3,140.03s-34.57,3.44-28.41,17.4,6.16,15.19,6.16,15.19l30.38,54.19,9.85-10.26s-11.09-24.22-11.09-32.02-11.49-21.34-11.49-21.34l20.12-1.64-15.51-21.51Z"/>
    <path id="Path_759-1099" data-name="Path 759-1099" class="cls-1" d="M751.03,156.61l11.49,25.04s8.62,8.62,18.06,43.1c9.44,34.48,11.49,33.25,11.49,33.25l-14.37,2.87s-16.01-37.35-21.35-40.23-11.91-29.15-11.91-29.15l-18.88-23.81,5.75-12.73,19.7,1.64Z"/>
    <path id="Path_760-1100" data-name="Path 760-1100" class="cls-23" d="M737.07,127.88l17.65,32.84s-22.17-10.26-25.45,12.31l-20.12-15.6s-27.91,9.03-44.75,5.75c0,0,4.93-15.6-12.73-22.58l39.82-4.93-1.64-8.62,4.1-8.21,43.1,9.03Z"/>
    <path id="Path_761-1101" data-name="Path 761-1101" class="cls-23" d="M666.87,219.42s-11.08-1.64-8.21,8.21l5.75,19.7s-7.39,20.12,4.1,15.6c11.49-4.52,18.88-32.43,18.88-32.43,0,0,4.93-21.35,0-21.35s-20.53-3.28-18.88,0-1.65,10.27-1.65,10.27Z"/>
    <path id="Path_762-1102" data-name="Path 762-1102" class="cls-23" d="M790.85,252.26s-14.37-3.69-17.65,2.05-2.46,24.63-2.46,25.04,4.93,4.52,6.57,4.52,11.91,18.47,25.86,11.91c13.96-6.57-12.32-43.52-12.32-43.52Z"/>
    <circle id="Ellipse_135" data-name="Ellipse 135" class="cls-1" cx="687.4" cy="34.69" r="16.01"/>
    <path id="Path_763-1103" data-name="Path 763-1103" class="cls-1" d="M700.54,37.97s3.28,17.24,6.16,19.7-21.76,6.16-21.76,6.16c0,0,3.69-11.91-.82-18.06s16.42-7.8,16.42-7.8Z"/>
    <path id="Path_764-1104" data-name="Path 764-1104" class="cls-26" d="M743.64,135.67c-2.8,0-9.91-1.16-17.89-2.65-6.91-1.29-14.46-2.82-20.42-4.06-6.38-1.33-10.94-2.33-10.94-2.33,0,0-1.64,10.26-6.98,9.03-4.6-1.06-18.34-49.05-22.05-62.32-.56-1.99.28-4.11,2.04-5.18l18.87-11.52,4.84,1.85s8.17-6.31,12.91-6.44,12.95-1.36,12.95-1.36c0,0,9.44.82,11.08,7.8,1.64,6.98,2.46,50.49,8.62,58.29s14.78,18.89,6.98,18.89Z"/>
    <path id="Path_765-1105" data-name="Path 765-1105" class="cls-1" d="M686.17,158.66s0,16.01,10.67,13.55.82-17.24.82-17.24l-11.49,3.69Z"/>
    <path id="Path_766-1106" data-name="Path 766-1106" class="cls-1" d="M715.73,160.31s-3.69,18.88-11.49,16.01c-7.8-2.87,0-19.7,0-19.7l11.49,3.69Z"/>
    <path id="Path_767-1107" data-name="Path 767-1107" class="cls-10" d="M732.97,115.56s-4.02,9.59-7.22,17.47c-6.91-1.29-14.46-2.82-20.42-4.06.43-1.13,1.03-2.19,1.78-3.14,2.87-3.28,1.23-4.1,1.23-4.1-2.46-4.93-.41-11.49-.41-11.49-4.93-13.14,2.46-29.56,2.46-29.56l22.58,34.89Z"/>
    <path id="Path_768-1108" data-name="Path 768-1108" class="cls-26" d="M711.62,80.66s-7.39,16.42-2.46,29.56c0,0-2.05,6.57.41,11.49,0,0,1.64.82-1.23,4.1s-5.34,14.78-3.28,17.24-2.87,6.98-1.64,9.44-2.05,5.75-2.05,5.75c0,0,12.32,2.46,14.37,6.16,0,0,2.46-2.87,1.23-6.16s-.41-4.52.82-6.57,4.93-6.57,5.34-8.62,11.08-27.5,11.08-27.5l-5.01-46.38-17.57,11.49Z"/>
    <path id="Path_769-1109" data-name="Path 769-1109" class="cls-26" d="M668.93,69.17l-.77.14c-2.21.4-3.81,2.33-3.79,4.57.03,4.12.26,11.44,1.27,21.56,1.64,16.42,7.39,41.05,8.62,43.52,1.96,4.36,4.15,8.61,6.57,12.73,3.69,6.16,4.52,4.1,3.69,6.98-.51,1.62-.03,3.38,1.23,4.52,0,0,7.39-8.21,14.78-3.69.53-1.16.81-2.42.82-3.69,0-2.05,1.23-4.1-.82-5.34s1.23-6.57-2.05-9.44-3.69-2.46-3.28-5.34c.19-1.95-.09-3.93-.82-5.75l-25.45-60.76Z"/>
    <path id="Path_770-1110" data-name="Path 770-1110" class="cls-23" d="M693.39,14.12s-6.64,17.6-22.91,24.9l-2.66-15.6,25.56-9.29Z"/>
    <path id="Path_791-1111" data-name="Path 791-1111" class="cls-20" d="M782.29,129.76c-2.75,10.17-12.17,16.46-12.17,16.46,0,0-4.96-10.19-2.21-20.35,2.75-10.17,12.17-16.46,12.17-16.46,0,0,4.96,10.19,2.21,20.35Z"/>
  </g>
  <g>
    <text class="cls-24" transform="translate(401.49 567.31)"><tspan x="0" y="0">2.84</tspan></text>
    <text class="cls-24" transform="translate(417.11 567.31)"><tspan x="0" y="0">%</tspan></text>
  </g>
</svg>